<svg xmlns="http://www.w3.org/2000/svg" viewBox="0 0 270 480" width="270" height="480" role="img" aria-label="Share card">
  <style>
    .rt { stroke-dasharray: 1; stroke-dashoffset: 1;
          animation: rt-draw 2.6s cubic-bezier(0.4,0,0.2,1) forwards; }
    @keyframes rt-draw { to { stroke-dashoffset: 0; } }
    @media (prefers-reduced-motion: reduce) {
      .rt { animation: none; stroke-dashoffset: 0; }
    }
  </style>
  <rect width="270" height="480" fill="#241c54"/>
  <text x="24" y="56" font-family="JetBrains Mono, ui-monospace, monospace" font-size="15"
     font-weight="500" fill="#b0a3c9" text-anchor="start" letter-spacing="1.6">12 AUG 2026</text>
  <svg x="24" y="76" width="222" height="142.1"
     viewBox="0 0 100 64" preserveAspectRatio="xMidYMid meet"
     data-variant="route" data-uid="sh-legendary"><path class="rt" pathLength="1" d="M10 46 C16 34 24 50 33 43 C42 36 44 20 55 17 C66 14 72 27 67 36 C62 45 50 44 47 50 C44 55 54 56 64 54 C74 51 82 44 90 47" fill="#d9a53c" fill-opacity="0.14"
        stroke="#d9a53c" stroke-width="2.28"
        stroke-linecap="round" stroke-linejoin="round"
        style="filter:drop-shadow(0 0 1.5px #d9a53c)"/></svg>
  <text x="24" y="290" font-family="JetBrains Mono, ui-monospace, monospace" font-size="92"
     font-weight="800" fill="#f5f0e4" text-anchor="start" letter-spacing="-4">8.2</text>
  <text x="193" y="290" font-family="JetBrains Mono, ui-monospace, monospace" font-size="26"
     font-weight="700" fill="#d9a53c" text-anchor="start" letter-spacing="1">KM</text>
  <path d="M24 312 H246" stroke="#3a2f7a" stroke-width="1.5"/>
  <text x="24" y="332" font-family="Plus Jakarta Sans, ui-sans-serif, system-ui" font-size="10"
     font-weight="700" fill="#b0a3c9" text-anchor="start" letter-spacing="1.2">PACE</text><text x="24" y="356" font-family="JetBrains Mono, ui-monospace, monospace" font-size="22"
     font-weight="700" fill="#f5f0e4" text-anchor="start" letter-spacing="0">5:12</text><text x="100" y="332" font-family="Plus Jakarta Sans, ui-sans-serif, system-ui" font-size="10"
     font-weight="700" fill="#b0a3c9" text-anchor="start" letter-spacing="1.2">TIME</text><text x="100" y="356" font-family="JetBrains Mono, ui-monospace, monospace" font-size="22"
     font-weight="700" fill="#f5f0e4" text-anchor="start" letter-spacing="0">42:31</text><text x="176" y="332" font-family="Plus Jakarta Sans, ui-sans-serif, system-ui" font-size="10"
     font-weight="700" fill="#b0a3c9" text-anchor="start" letter-spacing="1.2">HR</text><text x="176" y="356" font-family="JetBrains Mono, ui-monospace, monospace" font-size="22"
     font-weight="700" fill="#f5f0e4" text-anchor="start" letter-spacing="0">159</text>
  <rect x="24" y="380" width="222" height="30" rx="15" fill="#d9a53c"/>
  <text x="135" y="399.5" font-family="Plus Jakarta Sans, ui-sans-serif, system-ui" font-size="12"
     font-weight="800" fill="#241c54" text-anchor="middle" letter-spacing="1.6">NEGATIVE SPLIT</text>
  <g transform="translate(196 412)"><svg xmlns="http://www.w3.org/2000/svg" viewBox="0 0 100 100" width="54" height="54" role="img" aria-label="Temari — celebrating">
  <defs><clipPath id="clip-share-legendary"><circle cx="50" cy="52" r="28.8"/></clipPath></defs>
  <circle cx="50" cy="52" r="41" fill="none" stroke="#a77f2e" stroke-width="9"/>
  <circle cx="50" cy="52" r="31" fill="#f5f0e4" stroke="#241c54" stroke-width="4.5"/>
  <g clip-path="url(#clip-share-legendary)"></g>
  <path d="M34.5 37.0 L45.5 35.5" fill="none" stroke="#241c54" stroke-width="3.8" stroke-linecap="round"/>
  <path d="M65.5 37.0 L54.5 35.5" fill="none" stroke="#241c54" stroke-width="3.8" stroke-linecap="round"/>
  <circle cx="40" cy="50" r="5.3" fill="#241c54"/><circle cx="60" cy="50" r="5.3" fill="#241c54"/>
  <path d="M42 61 Q50 71.5 58 61 Z" fill="#241c54"/>
</svg>
</g>
  <text x="24" y="452" font-family="Plus Jakarta Sans, ui-sans-serif, system-ui" font-size="13"
     font-weight="800" fill="#b0a3c9" text-anchor="start" letter-spacing="-0.2">temari</text>
</svg>
